<svg t="1676881185064" class="icon" viewBox="0 0 1024 1024" version="1.1" xmlns="http://www.w3.org/2000/svg" p-id="13876" width="24" height="24"><path d="M967.04512 317.93152c-24.94976-58.96704-60.62592-111.91808-106.112-157.37344-45.45536-45.45536-98.4064-81.16224-157.37344-106.112-61.07136-25.84064-125.90592-38.90688-192.75264-38.90688-66.82112 0-131.68128 13.09696-192.75264 38.90688-58.96704 24.94976-111.91808 60.62592-157.37344 106.112-45.45536 45.45536-81.16224 98.4064-106.112 157.37344C28.73344 379.00288 15.63136 443.83744 15.63136 510.65344c0 66.816 13.09696 131.68128 38.9376 192.72192 24.94976 58.96704 60.62592 111.88736 106.112 157.37344 45.45536 45.45536 98.4064 81.16224 157.37344 106.112 61.07136 25.84064 125.90592 38.90688 192.75264 38.90688 66.82112 0 131.68128-13.09696 192.75264-38.90688 58.96704-24.94976 111.91808-60.62592 157.37344-106.112 45.45536-45.45536 81.16224-98.4064 106.112-157.37344 25.84064-61.07136 38.90688-125.90592 38.90688-192.72192S992.85504 379.00288 967.04512 317.93152zM510.83776 952.46336c-243.63008 0-441.83552-198.17472-441.83552-441.8048s198.20544-441.8048 441.83552-441.8048c243.59936 0.03072 441.8048 198.20544 441.8048 441.8048S754.43712 952.46336 510.83776 952.46336zM763.86816 384.2048c0-4.8896-1.26976-8.51456-1.26976-12.13952l-154.1632 138.58304 153.07776 138.58304c1.26976-3.62496 1.26976-7.2448 1.26976-12.13952L762.78272 384.2048 763.86816 384.2048zM510.79168 557.57312l233.87136-216.84224c-8.51456-5.98016-19.20512-9.6-34.96448-9.6L311.87968 331.13088c-14.49472 0-25.36448 3.62496-34.96448 10.86976L510.79168 557.57312zM583.07072 536.01792l-59.0592 59.0592c-3.62496 3.62496-8.51456 4.8896-13.22496 4.8896-4.7104 0-9.6-1.26976-13.22496-4.8896l0 0 0 0-59.0592-59.0592-160.32256 144.5632c8.51456 5.98016 19.20512 9.6 33.69472 9.6l397.63968 0c14.49472 0 25.36448-3.62496 33.69472-9.6L583.07072 536.01792zM260.0704 372.0704c-1.26976 3.62496-2.3552 7.2448-2.3552 12.13952l0 253.07648c0 4.8896 1.26976 8.51456 1.26976 12.13952l154.1632-138.58304L260.0704 372.0704z" fill="#efb336" p-id="13877"></path></svg>