<svg t="1676880982143" class="icon" viewBox="0 0 1024 1024" version="1.1" xmlns="http://www.w3.org/2000/svg" p-id="10066" width="24" height="24"><path d="M448.96 678.048c-94.368 4.432-170.656-42.912-170.656-105.872 0-63.04 76.288-113.6 170.672-117.968 94.416-4.352 170.88 34.56 170.88 97.488 0 62.976-76.464 122.08-170.88 126.352M649.92 473.456c-22.432-4.352-11.52-16.416-11.52-16.416s21.92-36.16-4.352-62.432c-32.56-32.56-111.68 4.16-111.68 4.16-30.224 9.36-22.224-4.304-17.952-27.536 0-27.376-9.376-73.744-89.888-46.352-80.4 27.52-149.456 123.968-149.456 123.968-48.032 64.064-41.664 113.584-41.664 113.584 11.984 109.344 128.16 139.36 218.512 146.464 95.072 7.456 223.36-32.768 262.288-115.408 38.896-82.784-31.808-115.536-54.288-120.032m-187.76 99.408c-6.016 4.48-13.408 3.872-16.56-1.52-3.328-5.248-2.08-13.648 4-18.08 7.024-5.232 14.336-3.728 17.504 1.52 3.168 5.376 0.912 13.44-4.944 18.08m-55.968 47.648c-17.728 2.08-32-8.128-32-22.96 0-14.752 12.688-30.224 30.432-32.064 20.336-1.936 33.6 9.792 33.6 24.624 0 14.752-14.384 28.4-32.032 30.4m23.952-124.768c-94.912 11.104-83.952 100-83.952 100s-0.96 28.16 25.44 42.512c55.552 30.08 112.72 11.872 141.632-25.44 28.896-37.328 11.936-128.112-83.12-117.072m265.984-60.768a15.456 15.456 0 0 0 15.44-14.704c11.6-104.224-85.392-86.288-85.392-86.288a15.52 15.52 0 0 0-15.52 15.664c0 8.544 6.896 15.52 15.52 15.52 69.68-15.392 54.288 54.272 54.288 54.272 0 8.624 7.04 15.52 15.68 15.52m-11.312-181.92c-33.536-7.856-68.032-1.072-77.712 0.768-0.736 0.08-1.44 0.768-2.112 0.912-0.336 0.064-0.544 0.416-0.544 0.416-9.536 2.688-16.48 11.52-16.48 21.92 0 12.432 10.048 22.64 22.608 22.64 0 0 12.208-1.632 20.48-4.88 8.208-3.296 77.68-2.464 112.16 55.488 18.832 42.272 8.288 70.576 6.976 75.136 0 0-4.48 10.976-4.48 21.792 0 12.48 10.08 20.336 22.56 20.336 10.4 0 19.168-1.44 21.728-19.056h0.128c37.04-123.456-45.312-181.456-105.312-195.472M511.504 48C255.52 48 48 255.52 48 511.456c0 256.032 207.52 463.52 463.504 463.52s463.52-207.488 463.52-463.52C975.008 255.52 767.472 48 511.488 48m-0.704 24.832c241.504 0 437.968 196.432 437.968 437.92 0 241.552-196.48 438-437.968 438-241.536 0-438.016-196.448-438.016-438 0-241.488 196.48-437.92 438.016-437.92" fill="#d81e06" p-id="10067"></path></svg>