<svg t="1676881294902" class="icon" viewBox="0 0 1024 1024" version="1.1" xmlns="http://www.w3.org/2000/svg" p-id="15002" width="24" height="24"><path d="M512 51.2C257.504 51.2 51.2 257.504 51.2 512S257.504 972.8 512 972.8 972.8 766.496 972.8 512 766.496 51.2 512 51.2z m0 896C272.032 947.2 76.8 751.968 76.8 512S272.032 76.8 512 76.8 947.2 272.032 947.2 512 751.968 947.2 512 947.2z m100.112-526.176c6.48 0 12.912 0.48 19.28 1.184-17.328-80.672-103.568-140.608-202.016-140.608-110.048 0-200.224 75.024-200.224 170.272 0 54.992 30 100.16 80.128 135.168l-20.032 60.24 70-35.088c25.04 4.96 45.12 10.048 70.128 10.048 6.288 0 12.512-0.304 18.688-0.8a148.976 148.976 0 0 1-6.176-41.952c0-87.488 75.12-158.464 170.224-158.464z m-107.664-54.288c15.072 0 25.056 9.92 25.056 24.976 0 15.008-9.984 25.072-25.056 25.072-15.008 0-30.08-10.064-30.08-25.072 0.032-15.056 15.072-24.976 30.08-24.976z m-140.128 50.048c-14.992 0-30.144-10.064-30.144-25.072 0-15.056 15.152-24.976 30.144-24.976 15.008 0 25.008 9.92 25.008 24.976 0 15.024-9.984 25.072-25.008 25.072z m260.464 14.992c-95.264 0-170.288 65.264-170.288 145.296 0 80.192 75.04 145.296 170.288 145.296 19.936 0 40.048-5.024 60.064-10.048l54.912 30.08-15.04-50.032c40.176-30.16 70.128-70.128 70.128-115.296 0-80.048-80.112-145.28-170.08-145.28z m-55.216 120.256c-9.984 0-20.032-9.92-20.032-20.032 0-9.984 10.048-20.032 20.032-20.032 15.136 0 25.056 10.048 25.056 20.032 0 10.112-9.92 20.032-25.056 20.032z m110.128 0c-9.904 0-19.888-9.92-19.888-20.032 0-9.984 9.984-20.032 19.888-20.032 14.992 0 25.056 10.048 25.056 20.032 0 10.112-10.064 20.032-25.056 20.032z" fill="#1afa29" p-id="15003"></path></svg>